<svg width="56" height="57" viewBox="0 0 56 57" fill="none" xmlns="http://www.w3.org/2000/svg">
<path d="M28 0.0714111C12.5826 0.0714111 0 12.8797 0 28.5714C0 44.3331 12.6393 57.0714 28 57.0714C43.4456 57.0714 56 44.2319 56 28.5714C56 20.9885 53.0795 13.8397 47.7763 8.44195C42.4733 3.04409 35.4499 0.0714111 28 0.0714111V0.0714111ZM28 53.7316C18.0176 53.7316 9.39881 47.677 5.50047 38.9865L13.8241 29.8635L16.9961 33.0921C17.6367 33.7443 18.6756 33.7443 19.3163 33.0921L23.0781 29.2631L26.84 33.092C27.4806 33.7442 28.5194 33.7442 29.1601 33.092L32.9219 29.2631L36.6837 33.092C37.3243 33.7442 38.3632 33.7443 39.0039 33.092L42.2072 29.8315L50.5307 38.9187C46.6468 47.6457 38.0086 53.7316 28 53.7316ZM16.0585 27.4145L28.0023 14.3236L39.9681 27.3873L37.8438 29.5496L34.0819 25.7207C33.4413 25.0686 32.4025 25.0686 31.7617 25.7207L28 29.5496L24.2382 25.7207C23.5975 25.0686 22.5587 25.0686 21.918 25.7207L18.1562 29.5496L16.0585 27.4145ZM51.7933 35.3995L29.2 10.7334C28.8897 10.3946 28.4551 10.2023 28 10.2023C27.9995 10.2023 27.9989 10.2023 27.9984 10.2023C27.5427 10.2027 27.1078 10.396 26.7977 10.7358L4.22712 35.474C3.61134 33.2798 3.28125 30.9642 3.28125 28.5714C3.28125 14.698 14.37 3.41125 28 3.41125C41.63 3.41125 52.7188 14.698 52.7188 28.5714C52.7188 30.9371 52.3958 33.2273 51.7933 35.3995Z" fill="white"/>
</svg>
